<svg xmlns="http://www.w3.org/2000/svg" viewBox="0 0 24 24" fill="none" stroke="currentColor" stroke-width="2" stroke-linecap="round" stroke-linejoin="round"><path d="M4 12.25a.25.25 0 0 1 .25-.25h15.5a.25.25 0 0 1 .25.25v0a.25.25 0 0 1-.25.25H4.25a.25.25 0 0 1-.25-.25v0Z"></path><path d="M8.25 16.5a.25.25 0 0 1 .25-.25h7.5a.25.25 0 0 1 .25.25v0a.25.25 0 0 1-.25.25h-7.5a.25.25 0 0 1-.25-.25v0Z"></path><path d="M12.25 8a.25.25 0 0 1 .25-.25h1.5a.25.25 0 0 1 .25.25v0a.25.25 0 0 1-.25.25h-1.5a.25.25 0 0 1-.25-.25v0Z"></path></svg>